<?xml version="1.0" encoding="utf-8"?>
<!-- Generator: Adobe Illustrator 22.1.0, SVG Export Plug-In . SVG Version: 6.00 Build 0)  -->
<svg version="1.1" id="Layer_1" xmlns="http://www.w3.org/2000/svg" xmlns:xlink="http://www.w3.org/1999/xlink" x="0px" y="0px"
	 viewBox="0 0 86 29.3" style="enable-background:new 0 0 86 29.3;" xml:space="preserve">
<style type="text/css">
	.st0{clip-path:url(#SVGID_1_);fill:url(#SVGID_2_);}
</style>
<g>
	<defs>
		<path id="SVGID_4_" d="M73.5,13.2c-1.8,1.8-3.6,3.6-5.4,5.4c-2.3,2.2-5.6,2.2-7.9,0c-1.3-1.3-2.6-2.6-3.9-3.9
			c-2.3-2.2-5.3-2.2-7.6,0c-1.2,1.2-2.4,2.4-3.6,3.6c-2.1,2.2-4.2,4.1-7.6,3.5c0,0.1-0.1,0.2-0.1,0.4c1.8,1.8,3.6,3.6,5.3,5.3
			c2.5,2.4,6.1,2.4,8.5,0c1.9-1.8,3.7-3.8,5.6-5.6c2.3-2.1,4.7-2,6.9,0.1c1.1,1.1,2.3,2.3,3.4,3.4c2.3,2.3,5.5,2.3,7.8,0
			c1.5-1.5,3-2.9,4.4-4.4c1.8-1.9,3.7-3.1,6.4-2.6c0,0,0.1-0.1,0.2-0.2c-0.1-0.1-0.1-0.3-0.2-0.4c-1.5-1.5-3-3.1-4.5-4.6
			c-1.3-1.3-2.6-1.9-3.9-1.9C76.1,11.3,74.8,11.9,73.5,13.2 M35.5,1.9c-2,1.9-3.8,3.9-5.9,5.7c-2.1,1.9-4.7,1.7-6.7-0.2
			c-1.4-1.3-2.7-2.7-4-4c-1.8-1.7-4.4-1.7-6.2,0c-1.5,1.4-3,2.9-4.5,4.4c-2.1,2.3-4.5,3.8-8.2,2.9c0.6,0.7,0.9,1.1,1.2,1.4
			c1.3,1.3,2.5,2.5,3.8,3.8c2.8,2.8,5.6,2.8,8.4,0.1c1.8-1.7,3.4-3.5,5.2-5.2c2.3-2.3,5.2-2.3,7.6-0.1c1.4,1.3,2.7,2.7,4.1,4
			c2.3,2.2,5.7,2.2,7.9,0c1.6-1.6,3.2-3.1,4.8-4.8c1.6-1.7,3.5-2.8,6-2.4c-0.1-0.3-0.1-0.5-0.1-0.5c-1.7-1.7-3.3-3.4-5-5.1
			C42.5,0.6,41.1,0,39.7,0C38.2,0,36.8,0.6,35.5,1.9"/>
	</defs>
	<clipPath id="SVGID_1_">
		<use xlink:href="#SVGID_4_"  style="overflow:visible;"/>
	</clipPath>
	<linearGradient id="SVGID_2_" gradientUnits="userSpaceOnUse" x1="3.051758e-05" y1="14.962" x2="86.014" y2="14.962">
		<stop  offset="0" style="stop-color:#1E4C74"/>
		<stop  offset="1.203000e-03" style="stop-color:#1E4C74"/>
		<stop  offset="0.1508" style="stop-color:#1D456C"/>
		<stop  offset="0.3871" style="stop-color:#1C3355"/>
		<stop  offset="0.5979" style="stop-color:#1A1F3B"/>
		<stop  offset="1" style="stop-color:#111425"/>
	</linearGradient>
	<path class="st0" d="M0,0h86v29.9H0V0z"/>
</g>
</svg>
