<?xml version="1.0" encoding="utf-8"?>
<!-- Generator: Adobe Illustrator 22.1.0, SVG Export Plug-In . SVG Version: 6.00 Build 0)  -->
<svg version="1.1" id="Layer_1" xmlns="http://www.w3.org/2000/svg" xmlns:xlink="http://www.w3.org/1999/xlink" x="0px" y="0px"
	 viewBox="0 0 137.3 91" style="enable-background:new 0 0 137.3 91;" xml:space="preserve">
<style type="text/css">
	.st0{opacity:0.1;}
	.st1{clip-path:url(#SVGID_1_);}
	
		.st2{clip-path:url(#SVGID_1_);fill:none;stroke:#000000;stroke-width:2;stroke-linecap:round;stroke-linejoin:round;stroke-miterlimit:10;}
	.st3{fill:#1E4C74;}
	.st4{fill:none;stroke:#1E4C74;stroke-width:2;stroke-linecap:round;stroke-linejoin:round;stroke-miterlimit:10;}
</style>
<g>
	<g class="st0">
		<g>
			<defs>
				<rect id="SVGID_3_" x="1" y="4" width="136.3" height="87"/>
			</defs>
			<clipPath id="SVGID_1_">
				<use xlink:href="#SVGID_3_"  style="overflow:visible;"/>
			</clipPath>
			<path class="st1" d="M16.7,83.1c0,4.3-3.5,7.9-7.9,7.9C4.5,91,1,87.5,1,83.1c0-4.3,3.5-7.9,7.9-7.9
				C13.2,75.3,16.7,78.8,16.7,83.1"/>
			<path class="st2" d="M24.4,70L85.5,6.7C86.6,5.6,88.1,5,89.6,5h46.7"/>
		</g>
	</g>
	<g>
		<path class="st3" d="M15.7,79.1c0,4.3-3.5,7.9-7.9,7.9C3.5,87,0,83.5,0,79.1c0-4.3,3.5-7.9,7.9-7.9C12.2,71.3,15.7,74.8,15.7,79.1
			"/>
		<path class="st4" d="M23.4,66L84.5,2.7C85.6,1.6,87.1,1,88.6,1h46.7"/>
	</g>
</g>
</svg>
