<?xml version="1.0" encoding="utf-8"?>
<!-- Generator: Adobe Illustrator 22.1.0, SVG Export Plug-In . SVG Version: 6.00 Build 0)  -->
<svg version="1.1" id="Layer_1" xmlns="http://www.w3.org/2000/svg" xmlns:xlink="http://www.w3.org/1999/xlink" x="0px" y="0px"
	 viewBox="0 0 24.1 24.1" style="enable-background:new 0 0 24.1 24.1;" xml:space="preserve">
<style type="text/css">
	.st0{fill:#FFFFFF;}
</style>
<g>
	<rect x="0.5" y="8" class="st0" width="5" height="16.1"/>
	<path class="st0" d="M2.9,5.9c1.6,0,2.9-1.3,2.9-3c0-1.6-1.3-3-2.9-3C1.3,0,0,1.3,0,3C0,4.6,1.3,5.9,2.9,5.9"/>
	<path class="st0" d="M13.4,15.7c0-2.3,1-3.6,3-3.6c1.8,0,2.7,1.3,2.7,3.6v8.4h5V13.9c0-4.3-2.4-6.4-5.9-6.4c-3.4,0-4.8,2.7-4.8,2.7
		V8H8.6v16.1h4.8V15.7z"/>
</g>
</svg>
