<svg xmlns="http://www.w3.org/2000/svg" xmlns:xlink="http://www.w3.org/1999/xlink" viewBox="0 0 124.89 105.72"><defs><style>.cls-1{fill:url(#Naamloos_verloop_5);}.cls-2{fill:url(#Naamloos_verloop_14);}.cls-3{fill:#1c1b38;}.cls-4,.cls-5{fill:#fff;}.cls-5{font-size:15.65px;font-family:Montserrat-Light, Montserrat;font-weight:300;}.cls-6{fill:#000;}.cls-7,.cls-8{fill:#ea601f;}.cls-7{letter-spacing:0em;}</style><linearGradient id="Naamloos_verloop_5" y1="52.86" x2="124.89" y2="52.86" gradientUnits="userSpaceOnUse"><stop offset="0" stop-color="#1c1c38"/><stop offset="1" stop-color="#223260"/></linearGradient><linearGradient id="Naamloos_verloop_14" x1="33.73" y1="43.94" x2="65.85" y2="43.94" gradientUnits="userSpaceOnUse"><stop offset="0" stop-color="#c84f1e"/><stop offset="0.08" stop-color="#d6561e"/><stop offset="0.2" stop-color="#e55d1f"/><stop offset="0.31" stop-color="#ea601f"/></linearGradient></defs><title>logo</title><g id="Layer_2" data-name="Layer 2"><g id="Laag_1" data-name="Laag 1"><path class="cls-1" d="M41.7,100A59.57,59.57,0,0,1,.47,51.27C-1.86,33.81,3.81,16.55,33,12.79,59.92,9.31,76.84,5.09,87.38,1.4a24.78,24.78,0,0,1,29,9.94l.17.26a70.68,70.68,0,0,1-4,73.18l-2.25,3.29s-11.09,16.59-37.9,17.6a67.1,67.1,0,0,1-22.69-3.11Z"/><path class="cls-2" d="M50.78,66.12l-11,0-2.54,0c-1.92,0-3.47-.68-3.47-2.34V23.92a2.14,2.14,0,0,1,2.17-2.2h3.76l11.86.07a22.87,22.87,0,0,1,4.54.42,8.63,8.63,0,0,1,3.46,1.51,9.9,9.9,0,0,1,2.3,2.39,11.29,11.29,0,0,1,1.52,3.21A12.92,12.92,0,0,1,63.87,33c0,4.48-2.74,7-6.4,9.08,6.14,1.67,8.38,6.15,8.38,11.57C65.85,59.37,61.37,65.54,50.78,66.12Zm3.5-31.49c0-1.43-.29-3.88-1.88-4.91-1.28-.82-3.33-1.11-6-1.11h-3.8V40h4.58a11.23,11.23,0,0,0,4.28-.64A5.34,5.34,0,0,0,54.28,34.63ZM48.66,46.7H42.57V59.2h6.34c5,0,7.64-1.64,7.64-6.06a5.92,5.92,0,0,0-2.06-4.92C53.19,47.2,51.25,46.7,48.66,46.7Z"/><rect class="cls-3" x="47.65" y="40" width="5.49" height="6.69"/><path class="cls-4" d="M59.22,42.64a.77.77,0,0,1-.12-1.37A10,10,0,0,0,64,32.68c0-4.5-1.58-8.22-6.09-9.9C57.53,26,55,28.61,51.13,29.14c1.59.65,3.15,2.08,3.15,5.16,0,5.15-5.35,5.7-6.52,5.7h-.11a3.35,3.35,0,1,0,0,6.7h.11s8.66-.56,8.66,5.9c0,3.49-1.29,5.2-3.23,6h0a12.41,12.41,0,0,1-4.3.62H42.57c0,2.7-.3,5.52-3.71,7l11.92,0a21,21,0,0,0,8-1.9v0C62.59,62.52,66,59.33,66,53A10.87,10.87,0,0,0,59.22,42.64Z"/><text class="cls-5" transform="translate(27.64 84.83)">Simply<tspan class="cls-6" x="53.19" y="0"> </tspan><tspan class="cls-7" x="57.21" y="0">Be</tspan></text><path class="cls-8" d="M91.71,52.1H76a10.61,10.61,0,0,0,1.11,4.83A7.43,7.43,0,0,0,80,60.08a7.52,7.52,0,0,0,3.93,1.06,9.54,9.54,0,0,0,2.64-.34,8.26,8.26,0,0,0,2.31-1.06,18.1,18.1,0,0,0,2.06-1.54c.63-.55,1.44-1.3,2.44-2.24a2.65,2.65,0,0,1,1.77-.53,2.92,2.92,0,0,1,2,.68A2.41,2.41,0,0,1,97.86,58,5.2,5.2,0,0,1,97,60.57a10.35,10.35,0,0,1-2.57,2.8,14.9,14.9,0,0,1-4.33,2.22,18.65,18.65,0,0,1-6,.88q-7.75,0-12-4.41t-4.3-12a20,20,0,0,1,1.06-6.61,14.36,14.36,0,0,1,3.09-5.22,13.33,13.33,0,0,1,5-3.34,17.9,17.9,0,0,1,6.6-1.17,15.69,15.69,0,0,1,8.08,2,13.11,13.11,0,0,1,5,5.14,13.5,13.5,0,0,1,1.68,6.42q0,3-1.74,3.93A10.84,10.84,0,0,1,91.71,52.1ZM76,47.54H90.56c-.19-2.75-.93-4.8-2.22-6.17a6.66,6.66,0,0,0-5.08-2,6.45,6.45,0,0,0-4.93,2.07A10.41,10.41,0,0,0,76,47.54Z"/></g></g></svg>