<?xml version="1.0" encoding="utf-8"?>
<!-- Generator: Adobe Illustrator 24.0.1, SVG Export Plug-In . SVG Version: 6.00 Build 0)  -->
<svg version="1.1" id="Layer_1" xmlns="http://www.w3.org/2000/svg" xmlns:xlink="http://www.w3.org/1999/xlink" x="0px" y="0px"
	 viewBox="0 0 240 84.3" style="enable-background:new 0 0 240 84.3;" xml:space="preserve">
<style type="text/css">
	.st0{fill:#FFFFFF;}
</style>
<title>partner-img01</title>
<g id="Layer_2_1_">
	<g id="Layer_1-2">
		<path class="st0" d="M132.1,43.4H126l-1.2-5.2h-10.1l-2.1,5.2h-6.1l12-27.4c0.4-0.8,0.9-1.5,1.6-2c0.6-0.4,1.3-0.6,2-0.5
			c0.6,0,1.3,0.1,1.8,0.5c0.5,0.5,0.9,1.2,1.1,2L132.1,43.4z M123.8,33.3l-2.5-11.9l-4.7,11.9H123.8z"/>
		<path class="st0" d="M142.1,43.4h-5.8l2.6-29.9h5.8L142.1,43.4z"/>
		<path class="st0" d="M171.7,43.4h-6.8l-4.9-11.1h-4.2l-1,11.1H149l2.1-23.5c0-1.8,0.7-3.6,2-4.9c1.1-1,2.9-1.5,5.3-1.5h5
			c2.6-0.2,5.1,0.8,6.9,2.7c1.6,1.9,2.3,4.4,2,6.9c-0.1,1.9-0.8,3.7-2,5.2c-1.1,1.4-2.5,2.4-4.2,3L171.7,43.4z M165,26.1
			c0.9-0.9,1.4-2,1.5-3.2c0.2-1.1-0.2-2.2-0.9-3.1c-0.8-0.8-1.9-1.2-3-1.2h-2.9c-1.4-0.2-2.7,0.9-2.8,2.3c0,0.1,0,0.2,0,0.4
			l-0.5,6.1h5.5C163,27.4,164.2,27,165,26.1z"/>
		<path class="st0" d="M182.4,43.4h-5.8l2.6-29.9h5.8L182.4,43.4z"/>
		<path class="st0" d="M215.3,13.5L213,40.4c-0.1,0.9-0.4,1.7-1.1,2.4c-0.5,0.6-1.3,1-2.1,1c-1.9,0-3.4-1.1-4.5-3.4l-8.9-16.2
			l-1.7,19.2h-5.9l2.6-29.9h5.6l10.6,19.6l1.7-19.6L215.3,13.5z"/>
		<path class="st0" d="M239.7,34.6c-0.2,2.7-1.5,5.1-3.7,6.7c-4.6,3.1-10.6,3.2-15.4,0.3c-1.1-0.8-2.1-1.8-2.6-3.1
			c-0.7-1.4-0.9-3-0.7-4.6l5.3-0.3c-0.2,1.4,0.4,2.8,1.6,3.5c1.2,0.8,2.7,1.3,4.2,1.3c3.5,0,5.4-1.2,5.6-3.7c0.2-2-0.9-3.2-3.3-3.6
			l-4.8-0.5c-2.1-0.2-4.1-1.1-5.6-2.6c-1.3-1.4-1.9-3.4-1.6-5.9c0.2-2.6,1.5-4.9,3.6-6.4c2.3-1.7,5.1-2.6,8-2.5
			c2.7-0.2,5.3,0.7,7.3,2.4c1.8,1.5,2.6,3.8,2.4,6.1l-5.2,0.3c-0.3-2.4-1.8-3.6-4.6-3.6c-1.5-0.1-2.9,0.3-4.2,1.1
			c-0.9,0.6-1.5,1.5-1.7,2.6c-0.1,0.9,0.2,1.8,0.8,2.4c0.7,0.6,1.6,1,2.5,1.1l4.8,0.5C237.7,26.6,240.2,29.5,239.7,34.6z"/>
		<path class="st0" d="M120,66.1h5.4c-0.3,3.8-1.5,6.7-3.6,8.8c-2.3,2.1-5.3,3.2-8.3,3.1c-7.7,0-11.1-4.5-10.3-13.5l0.2-2.5
			c0.6-7.1,3-11.5,7.1-13.3c1.8-0.8,3.7-1.1,5.7-1.1c2.8-0.2,5.5,0.8,7.6,2.6c1.9,1.8,2.6,4.3,2.3,7.6h-5.5
			c-0.1-1.3-0.5-2.6-1.3-3.7c-0.9-0.9-2.3-1.4-3.6-1.3c-1.7-0.1-3.4,0.6-4.5,1.8c-0.9,1.3-1.5,2.8-1.6,4.4c-0.1,0.7-0.2,1.6-0.3,2.7
			l-0.2,2.6c-0.3,3.2,0,5.4,0.8,6.6s2.2,1.8,4.2,1.8c1.6,0.1,3.1-0.5,4.2-1.6C119.1,69.6,119.8,67.9,120,66.1z"/>
		<path class="st0" d="M152.1,77.7H146l-1.2-5.2h-10l-2.1,5.2h-6.1l12-27.4c0.4-0.8,0.9-1.5,1.6-2c0.6-0.4,1.3-0.6,2-0.5
			c0.6,0,1.3,0.1,1.8,0.5c0.5,0.5,0.9,1.2,1.1,2L152.1,77.7z M143.8,67.6l-2.5-11.9l-4.7,11.9H143.8z"/>
		<path class="st0" d="M178.9,77.7h-6.8l-4.9-11.1H163l-1,11.1h-5.8l2-23.5c0-1.8,0.7-3.6,2-4.9c1.1-1,2.9-1.5,5.4-1.5h5
			c2.6-0.2,5.1,0.8,6.9,2.7c1.6,1.9,2.3,4.4,2,6.9c-0.1,1.9-0.8,3.7-2,5.2c-1.1,1.4-2.5,2.4-4.2,3L178.9,77.7z M172.1,60.4
			c0.9-0.8,1.4-2,1.5-3.2c0.2-1.1-0.2-2.2-0.9-3.1c-0.8-0.8-1.9-1.3-3-1.2h-2.9c-1.4-0.1-2.7,0.9-2.8,2.3c0,0.1,0,0.2,0,0.4
			l-0.5,6.1h5.5C170.2,61.7,171.3,61.2,172.1,60.4z"/>
		<path class="st0" d="M203.4,77.7h-10.6c-3.4,0-5.7-0.6-6.9-1.8s-1.8-3.2-1.5-6.2l1.9-22h19.7l-0.5,5.2h-13.9l-0.6,7h9.7l-0.9,5.2
			h-9.3l-0.4,4.2c-0.2,0.9,0,1.8,0.6,2.4c0.8,0.5,1.8,0.8,2.8,0.7h10.2L203.4,77.7z"/>
		<path class="st0" d="M9,0.5l3.6,22.1c0,0,57.6-13.2,64.6,21.5c0,0,3.1-28.4-23.7-38.6C32.5-2.4,9,0.5,9,0.5z"/>
		<path class="st0" d="M77.3,47.4c0,0,10.4,34.4-21,36.9c-17.9,0-26.7-1.8-42-13.4C7.8,65.8,1.5,56.5,0.7,49.5c0,0,8.8,14,49.7,15.8
			C67.6,65.8,76.5,57.7,77.3,47.4z"/>
		<path class="st0" d="M0.7,45.9c0,0-5-16.4,12.2-20.1s45,7.6,45,7.6l4.9,26.4C62.8,59.8,9,23.1,0.7,45.9z"/>
	</g>
</g>
</svg>
