<?xml version="1.0" encoding="utf-8"?>
<!-- Generator: Adobe Illustrator 24.0.1, SVG Export Plug-In . SVG Version: 6.00 Build 0)  -->
<svg version="1.1" id="Layer_1" xmlns="http://www.w3.org/2000/svg" xmlns:xlink="http://www.w3.org/1999/xlink" x="0px" y="0px"
	 viewBox="0 0 216.9 90" style="enable-background:new 0 0 216.9 90;" xml:space="preserve">
<style type="text/css">
	.st0{fill:#FFFFFF;}
</style>
<title>partner-img02</title>
<g id="Layer_2_1_">
	<g id="Layer_1-2">
		<path class="st0" d="M137.5,53.7c0,3.5-0.9,6.2-2.9,8.1c-1.9,1.9-4.6,2.8-7.9,2.8h-5.1c-4.2,0-7.2-0.7-8.9-2.2
			c-1.8-1.5-2.6-4-2.6-7.6V26.6h16c3.6,0,6.3,0.9,8.2,2.7c1.8,1.8,2.7,4.4,2.7,7.7c0.1,1.8-0.4,3.5-1.4,4.9
			c-0.8,1.2-1.9,2.2-3.2,2.9C135.8,46.5,137.5,49.5,137.5,53.7z M125.5,41.5c2.7,0,4.1-1.4,4.1-4.1s-1.4-4.1-4.1-4.1h-8v8.2H125.5z
			 M130.2,53.4c0.1-1.4-0.2-2.7-0.9-3.9c-0.8-1-2-1.4-3.3-1.3h-8.5v6c-0.1,1.1,0.3,2.3,1.1,3c1.1,0.7,2.3,1,3.6,0.8h3.8
			C128.8,58.1,130.1,56.5,130.2,53.4L130.2,53.4z"/>
		<path class="st0" d="M170,64.7h-13.4c-4.3,0-7.3-0.7-9-2.2s-2.6-4.1-2.6-7.8v-28h25v6.6h-17.6v8.9h12.3l-0.5,6.6h-11.8v5.3
			c-0.1,1.1,0.2,2.3,1,3.1c1.1,0.7,2.4,1,3.7,0.8H170V64.7z"/>
		<path class="st0" d="M184.7,64.7h-7.4v-38h7.4V64.7z"/>
		<path class="st0" d="M216.9,64.7h-11.3c-4.3,0-7.3-0.8-9.2-2.5s-2.9-4.3-2.9-8.1V26.6h7.4v27.5c-0.1,1.1,0.2,2.3,1,3.1
			c1.1,0.7,2.4,1,3.7,0.8h11.3L216.9,64.7z"/>
		<path class="st0" d="M9.6,0.6l3.9,23.6c0,0,61.6-14.1,69,23c0,0,3.3-30.3-25.3-41.2C34.7-2.6,9.6,0.6,9.6,0.6z"/>
		<path class="st0" d="M82.6,50.6c0,0,11.1,36.7-22.4,39.4C41,90,31.6,88,15.3,75.7c-7-5.4-13.7-15.4-14.6-22.8
			c0,0,9.4,15,53.1,16.9C72.2,70.3,81.7,61.7,82.6,50.6z"/>
		<path class="st0" d="M0.7,49c0,0-5.3-17.5,13.1-21.4s48.1,8.1,48.1,8.1l5.2,28.2C67.1,63.8,9.6,24.7,0.7,49z"/>
	</g>
</g>
</svg>
