<?xml version="1.0" encoding="utf-8"?>
<!-- Generator: Adobe Illustrator 22.1.0, SVG Export Plug-In . SVG Version: 6.00 Build 0)  -->
<svg version="1.1" id="Layer_1" xmlns="http://www.w3.org/2000/svg" xmlns:xlink="http://www.w3.org/1999/xlink" x="0px" y="0px"
	 viewBox="0 0 356.6 33.6" style="enable-background:new 0 0 356.6 33.6;" xml:space="preserve">
<style type="text/css">
	.st0{fill:#111425;}
	.st1{clip-path:url(#SVGID_1_);fill:#1B2F4F;}
	.st2{clip-path:url(#SVGID_1_);fill:#1B2E4E;}
	.st3{clip-path:url(#SVGID_1_);fill:#1B2D4C;}
	.st4{clip-path:url(#SVGID_1_);fill:#1B2C4B;}
	.st5{clip-path:url(#SVGID_1_);fill:#1B2B4A;}
	.st6{clip-path:url(#SVGID_1_);fill:#1B2A49;}
	.st7{clip-path:url(#SVGID_1_);fill:#1B2947;}
	.st8{clip-path:url(#SVGID_1_);fill:#1B2846;}
	.st9{clip-path:url(#SVGID_1_);fill:#1B2745;}
	.st10{clip-path:url(#SVGID_1_);fill:#1B2643;}
	.st11{clip-path:url(#SVGID_1_);fill:#1A2442;}
	.st12{clip-path:url(#SVGID_1_);fill:#1A2341;}
	.st13{clip-path:url(#SVGID_1_);fill:#1A223F;}
	.st14{clip-path:url(#SVGID_1_);fill:#1A213E;}
	.st15{clip-path:url(#SVGID_1_);fill:#1A203C;}
	.st16{clip-path:url(#SVGID_1_);fill:#1A1F3B;}
	.st17{clip-path:url(#SVGID_1_);fill:#1A1E3A;}
	.st18{clip-path:url(#SVGID_1_);fill:#191E39;}
	.st19{clip-path:url(#SVGID_1_);fill:#191D38;}
	.st20{clip-path:url(#SVGID_1_);fill:#181D37;}
	.st21{clip-path:url(#SVGID_1_);fill:#181C36;}
	.st22{clip-path:url(#SVGID_1_);fill:#171C35;}
	.st23{clip-path:url(#SVGID_1_);fill:#171B34;}
	.st24{clip-path:url(#SVGID_1_);fill:#171B33;}
	.st25{clip-path:url(#SVGID_1_);fill:#161A32;}
	.st26{clip-path:url(#SVGID_1_);fill:#161A31;}
	.st27{clip-path:url(#SVGID_1_);fill:#15192F;}
	.st28{clip-path:url(#SVGID_1_);fill:#15192E;}
	.st29{clip-path:url(#SVGID_1_);fill:#14182D;}
	.st30{clip-path:url(#SVGID_1_);fill:#14182C;}
	.st31{clip-path:url(#SVGID_1_);fill:#14172B;}
	.st32{clip-path:url(#SVGID_1_);fill:#13172A;}
	.st33{clip-path:url(#SVGID_1_);fill:#131629;}
	.st34{clip-path:url(#SVGID_1_);fill:#121628;}
	.st35{clip-path:url(#SVGID_1_);fill:#121527;}
	.st36{clip-path:url(#SVGID_1_);fill:#111526;}
	.st37{clip-path:url(#SVGID_1_);fill:#111425;}
	.st38{clip-path:url(#SVGID_1_);fill:#1E4C74;}
	.st39{clip-path:url(#SVGID_1_);fill:#1E4C73;}
	.st40{clip-path:url(#SVGID_1_);fill:#1E4B73;}
	.st41{clip-path:url(#SVGID_1_);fill:#1E4A72;}
	.st42{clip-path:url(#SVGID_1_);fill:#1E4A71;}
	.st43{clip-path:url(#SVGID_1_);fill:#1E4971;}
	.st44{clip-path:url(#SVGID_1_);fill:#1E4970;}
	.st45{clip-path:url(#SVGID_1_);fill:#1E486F;}
	.st46{clip-path:url(#SVGID_1_);fill:#1E476E;}
	.st47{clip-path:url(#SVGID_1_);fill:#1E476D;}
	.st48{clip-path:url(#SVGID_1_);fill:#1D466C;}
	.st49{clip-path:url(#SVGID_1_);fill:#1D456C;}
	.st50{clip-path:url(#SVGID_1_);fill:#1D456B;}
	.st51{clip-path:url(#SVGID_1_);fill:#1D446A;}
	.st52{clip-path:url(#SVGID_1_);fill:#1D4369;}
	.st53{clip-path:url(#SVGID_1_);fill:#1D4368;}
	.st54{clip-path:url(#SVGID_1_);fill:#1D4267;}
	.st55{clip-path:url(#SVGID_1_);fill:#1D4166;}
	.st56{clip-path:url(#SVGID_1_);fill:#1D4065;}
	.st57{clip-path:url(#SVGID_1_);fill:#1D4064;}
	.st58{clip-path:url(#SVGID_1_);fill:#1D3F63;}
	.st59{clip-path:url(#SVGID_1_);fill:#1D3E62;}
	.st60{clip-path:url(#SVGID_1_);fill:#1D3D61;}
	.st61{clip-path:url(#SVGID_1_);fill:#1D3C60;}
	.st62{clip-path:url(#SVGID_1_);fill:#1D3C5F;}
	.st63{clip-path:url(#SVGID_1_);fill:#1C3B5E;}
	.st64{clip-path:url(#SVGID_1_);fill:#1C3A5D;}
	.st65{clip-path:url(#SVGID_1_);fill:#1C395C;}
	.st66{clip-path:url(#SVGID_1_);fill:#1C385B;}
	.st67{clip-path:url(#SVGID_1_);fill:#1C375A;}
	.st68{clip-path:url(#SVGID_1_);fill:#1C3659;}
	.st69{clip-path:url(#SVGID_1_);fill:#1C3557;}
	.st70{clip-path:url(#SVGID_1_);fill:#1C3556;}
	.st71{clip-path:url(#SVGID_1_);fill:#1C3455;}
	.st72{clip-path:url(#SVGID_1_);fill:#1C3354;}
	.st73{clip-path:url(#SVGID_1_);fill:#1C3253;}
	.st74{clip-path:url(#SVGID_1_);fill:#1C3151;}
	.st75{clip-path:url(#SVGID_1_);fill:#1B3050;}
</style>
<g>
	<g>
		<path class="st0" d="M127,33l-1.4-4.6h-11.4l-1.4,4.6h-10.7L114,0.6h12.1L138,33H127z M116.4,21.2h7L120,9.6h-0.2L116.4,21.2z"/>
		<polygon class="st0" points="143.3,0.6 153.7,0.6 153.7,24.7 170.3,24.7 170.3,33 143.3,33 		"/>
		<path class="st0" d="M202.9,30.1c-2.8,2.3-6.8,3.5-11.9,3.5c-5.2,0-9.1-1.2-12-3.5c-2.8-2.3-4.2-5.7-4.2-10.1V0.6h10.4v19.3
			c0,1.8,0.5,3.3,1.5,4.4c1,1.1,2.4,1.6,4.2,1.6c1.9,0,3.3-0.5,4.3-1.7c1-1.1,1.5-2.5,1.5-4.3V0.6h10.4V20
			C207.1,24.4,205.7,27.8,202.9,30.1"/>
		<polygon class="st0" points="224.3,33 212.8,0.6 223.9,0.6 230.4,22.3 230.6,22.3 237.2,0.6 247.8,0.6 236.4,33 		"/>
		<rect x="254" y="0.6" class="st0" width="10.4" height="32.5"/>
		<path class="st0" d="M297,2.5c2.7,1.7,4,4.2,4.1,7.5v0.6h-9.8v-0.2c0-0.9-0.3-1.7-1-2.4c-0.7-0.6-1.7-0.9-3.2-0.9
			c-1.4,0-2.4,0.2-3.2,0.6c-0.7,0.4-1.1,0.9-1.1,1.5c0,0.8,0.5,1.5,1.5,1.9c1,0.4,2.6,0.8,4.9,1.3c2.6,0.5,4.8,1.1,6.4,1.7
			c1.7,0.6,3.2,1.5,4.4,2.9c1.3,1.3,1.9,3.1,1.9,5.4c0,3.8-1.3,6.7-3.9,8.5c-2.6,1.9-6.1,2.8-10.4,2.8c-5.1,0-9-0.8-11.8-2.5
			c-2.8-1.7-4.2-4.7-4.2-9h9.9c0,1.6,0.4,2.7,1.3,3.3c0.9,0.6,2.2,0.8,4,0.8c1.3,0,2.4-0.1,3.3-0.4c0.9-0.3,1.3-0.9,1.3-1.7
			c0-0.8-0.5-1.4-1.4-1.8c-1-0.4-2.5-0.8-4.7-1.3c-2.6-0.6-4.8-1.2-6.6-1.8s-3.2-1.6-4.5-3c-1.3-1.4-1.9-3.3-1.9-5.8
			c0-3.6,1.4-6.2,4.1-7.9c2.8-1.7,6.2-2.5,10.5-2.5C290.9,0,294.4,0.8,297,2.5"/>
		<rect x="309" y="0.6" class="st0" width="10.4" height="32.5"/>
		<polygon class="st0" points="328.2,0.6 356.3,0.6 356.3,8.4 338.7,8.4 338.7,12.8 353.8,12.8 353.8,20.3 338.7,20.3 338.7,25.3 
			356.6,25.3 356.6,33 328.2,33 		"/>
	</g>
	<g>
		<defs>
			<path id="SVGID_3_" d="M51.9,7.4c-1.8-1.8-3.5-3.6-5.4-5.4c-2.7-2.7-6.1-2.7-8.8,0c-2.1,2-4.1,4.2-6.2,6.1c-2.2,2-5,1.8-7.1-0.3
				C22.9,6.4,21.5,5,20,3.6c-1.9-1.8-4.7-1.8-6.6,0c-1.6,1.5-3.2,3.1-4.7,4.7C6.5,10.7,4,12.3,0,11.3c0.6,0.8,0.9,1.2,1.3,1.5
				c1.3,1.4,2.7,2.7,4,4c3,3,6,3,9,0.1c1.9-1.8,3.7-3.7,5.5-5.5c2.5-2.4,5.6-2.5,8.1-0.1c1.5,1.4,2.9,2.8,4.3,4.2
				c2.4,2.3,6,2.3,8.4,0c1.7-1.7,3.4-3.3,5-5.1c1.7-1.8,3.7-3,6.4-2.5C51.9,7.6,52,7.5,51.9,7.4 M91.1,18.9
				c-1.6-1.6-3.2-3.2-4.8-4.8c-2.7-2.7-5.5-2.7-8.3,0c-1.9,1.9-3.8,3.8-5.7,5.7c-2.4,2.3-6,2.3-8.4,0c-1.4-1.4-2.8-2.8-4.2-4.1
				c-2.5-2.4-5.6-2.3-8,0c-1.3,1.3-2.6,2.5-3.8,3.8c-2.2,2.3-4.5,4.4-8.1,3.7c0,0.1-0.1,0.3-0.1,0.4c1.9,1.9,3.8,3.8,5.7,5.7
				c2.6,2.6,6.4,2.6,9.1,0c2-2,3.9-4,6-5.9c2.4-2.2,4.9-2.2,7.3,0.1c1.2,1.2,2.4,2.4,3.6,3.6c2.5,2.5,5.8,2.5,8.3,0
				c1.6-1.6,3.2-3.1,4.7-4.7c1.9-2,4-3.3,6.8-2.8c0,0,0.1-0.1,0.2-0.2C91.3,19.2,91.3,19,91.1,18.9"/>
		</defs>
		<clipPath id="SVGID_1_">
			<use xlink:href="#SVGID_3_"  style="overflow:visible;"/>
		</clipPath>
		<rect x="39.7" y="11.3" class="st1" width="0.6" height="20.5"/>
		<rect x="40.3" y="11.3" class="st2" width="1" height="20.5"/>
		<rect x="41.2" y="11.3" class="st3" width="1" height="20.5"/>
		<rect x="42.2" y="11.3" class="st4" width="1" height="20.5"/>
		<rect x="43.1" y="11.3" class="st5" width="1" height="20.5"/>
		<rect x="44.1" y="11.3" class="st6" width="1" height="20.5"/>
		<rect x="45.1" y="11.3" class="st7" width="1" height="20.5"/>
		<rect x="46" y="11.3" class="st8" width="1" height="20.5"/>
		<rect x="47" y="11.3" class="st9" width="1" height="20.5"/>
		<rect x="47.9" y="11.3" class="st10" width="1" height="20.5"/>
		<rect x="48.9" y="11.3" class="st11" width="1" height="20.5"/>
		<rect x="49.8" y="11.3" class="st12" width="1" height="20.5"/>
		<rect x="50.8" y="11.3" class="st13" width="1" height="20.5"/>
		<rect x="51.8" y="11.3" class="st14" width="1" height="20.5"/>
		<rect x="52.7" y="11.3" class="st15" width="1" height="20.5"/>
		<rect x="53.7" y="11.3" class="st16" width="1" height="20.5"/>
		<rect x="54.6" y="11.3" class="st16" width="1.7" height="20.5"/>
		<rect x="56.3" y="11.3" class="st17" width="1.7" height="20.5"/>
		<rect x="58" y="11.3" class="st18" width="1.7" height="20.5"/>
		<rect x="59.6" y="11.3" class="st19" width="1.7" height="20.5"/>
		<rect x="61.3" y="11.3" class="st20" width="1.7" height="20.5"/>
		<rect x="63" y="11.3" class="st21" width="1.7" height="20.5"/>
		<rect x="64.6" y="11.3" class="st22" width="1.7" height="20.5"/>
		<rect x="66.3" y="11.3" class="st23" width="1.7" height="20.5"/>
		<rect x="68" y="11.3" class="st24" width="1.7" height="20.5"/>
		<rect x="69.6" y="11.3" class="st25" width="1.7" height="20.5"/>
		<rect x="71.3" y="11.3" class="st26" width="1.7" height="20.5"/>
		<rect x="73" y="11.3" class="st27" width="1.7" height="20.5"/>
		<rect x="74.7" y="11.3" class="st28" width="1.7" height="20.5"/>
		<rect x="76.3" y="11.3" class="st29" width="1.7" height="20.5"/>
		<rect x="78" y="11.3" class="st30" width="1.7" height="20.5"/>
		<rect x="79.7" y="11.3" class="st31" width="1.7" height="20.5"/>
		<rect x="81.3" y="11.3" class="st32" width="1.7" height="20.5"/>
		<rect x="83" y="11.3" class="st33" width="1.7" height="20.5"/>
		<rect x="84.7" y="11.3" class="st34" width="1.7" height="20.5"/>
		<rect x="86.3" y="11.3" class="st35" width="1.7" height="20.5"/>
		<rect x="88" y="11.3" class="st36" width="1.7" height="20.5"/>
		<rect x="89.7" y="11.3" class="st37" width="1.7" height="20.5"/>
		<path class="st37" d="M91.4,31.8V11.3V31.8z"/>
		<rect x="0" y="-0.7" class="st38" width="0.1" height="20.6"/>
		<rect x="0.1" y="-0.7" class="st38" width="1" height="20.6"/>
		<rect x="1.1" y="-0.7" class="st38" width="1" height="20.6"/>
		<rect x="2" y="-0.7" class="st39" width="1" height="20.6"/>
		<rect x="3" y="-0.7" class="st40" width="1" height="20.6"/>
		<rect x="3.9" y="-0.7" class="st40" width="1" height="20.6"/>
		<rect x="4.9" y="-0.7" class="st41" width="1" height="20.6"/>
		<rect x="5.8" y="-0.7" class="st42" width="1" height="20.6"/>
		<rect x="6.8" y="-0.7" class="st43" width="1" height="20.6"/>
		<rect x="7.8" y="-0.7" class="st44" width="1" height="20.6"/>
		<rect x="8.7" y="-0.7" class="st45" width="1" height="20.6"/>
		<rect x="9.7" y="-0.7" class="st45" width="1" height="20.6"/>
		<rect x="10.6" y="-0.7" class="st46" width="1" height="20.6"/>
		<rect x="11.6" y="-0.7" class="st47" width="1" height="20.6"/>
		<rect x="12.5" y="-0.7" class="st48" width="1" height="20.6"/>
		<rect x="13.5" y="-0.7" class="st49" width="1" height="20.6"/>
		<rect x="14.5" y="-0.7" class="st50" width="1" height="20.6"/>
		<rect x="15.4" y="-0.7" class="st51" width="1" height="20.6"/>
		<rect x="16.4" y="-0.7" class="st52" width="1" height="20.6"/>
		<rect x="17.3" y="-0.7" class="st53" width="1" height="20.6"/>
		<rect x="18.3" y="-0.7" class="st54" width="1" height="20.6"/>
		<rect x="19.2" y="-0.7" class="st55" width="1" height="20.6"/>
		<rect x="20.2" y="-0.7" class="st56" width="1" height="20.6"/>
		<rect x="21.1" y="-0.7" class="st57" width="1" height="20.6"/>
		<rect x="22.1" y="-0.7" class="st58" width="1" height="20.6"/>
		<rect x="23.1" y="-0.7" class="st59" width="1" height="20.6"/>
		<rect x="24" y="-0.7" class="st60" width="1" height="20.6"/>
		<rect x="25" y="-0.7" class="st61" width="1" height="20.6"/>
		<rect x="25.9" y="-0.7" class="st62" width="1" height="20.6"/>
		<rect x="26.9" y="-0.7" class="st63" width="1" height="20.6"/>
		<rect x="27.8" y="-0.7" class="st64" width="1" height="20.6"/>
		<rect x="28.8" y="-0.7" class="st65" width="1" height="20.6"/>
		<rect x="29.8" y="-0.7" class="st66" width="1" height="20.6"/>
		<rect x="30.7" y="-0.7" class="st67" width="1" height="20.6"/>
		<rect x="31.7" y="-0.7" class="st68" width="1" height="20.6"/>
		<rect x="32.6" y="-0.7" class="st69" width="1" height="20.6"/>
		<rect x="33.6" y="-0.7" class="st70" width="1" height="20.6"/>
		<rect x="34.5" y="-0.7" class="st71" width="1" height="20.6"/>
		<rect x="35.5" y="-0.7" class="st72" width="1" height="20.6"/>
		<rect x="36.4" y="-0.7" class="st73" width="1" height="20.6"/>
		<rect x="37.4" y="-0.7" class="st74" width="1" height="20.6"/>
		<rect x="38.4" y="-0.7" class="st75" width="1" height="20.6"/>
		<rect x="39.3" y="-0.7" class="st1" width="1" height="20.6"/>
		<rect x="40.3" y="-0.7" class="st2" width="1" height="20.6"/>
		<rect x="41.2" y="-0.7" class="st3" width="1" height="20.6"/>
		<rect x="42.2" y="-0.7" class="st4" width="1" height="20.6"/>
		<rect x="43.1" y="-0.7" class="st5" width="1" height="20.6"/>
		<rect x="44.1" y="-0.7" class="st6" width="1" height="20.6"/>
		<rect x="45.1" y="-0.7" class="st7" width="1" height="20.6"/>
		<rect x="46" y="-0.7" class="st8" width="1" height="20.6"/>
		<rect x="47" y="-0.7" class="st9" width="1" height="20.6"/>
		<rect x="47.9" y="-0.7" class="st10" width="1" height="20.6"/>
		<rect x="48.9" y="-0.7" class="st11" width="1" height="20.6"/>
		<rect x="49.8" y="-0.7" class="st12" width="1" height="20.6"/>
		<rect x="50.8" y="-0.7" class="st13" width="1" height="20.6"/>
		<rect x="51.8" y="-0.7" class="st14" width="0.3" height="20.6"/>
	</g>
</g>
</svg>
